<svg width="116" height="144" viewBox="0 0 116 144" fill="none" xmlns="http://www.w3.org/2000/svg">
<g filter="url(#filter0_d)">
<path d="M82.5 40.2857C82.9141 40.2857 83.2676 40.4531 83.5605 40.7879C83.8535 41.1228 84 41.5268 84 42C84 42.4732 83.8535 42.8772 83.5605 43.2121C83.2676 43.5469 82.9141 43.7143 82.5 43.7143H82.3242L80.9766 52.5804C80.9141 52.9911 80.7422 53.3304 80.4609 53.5982C80.1797 53.8661 79.8594 54 79.5 54H64.5C64.1406 54 63.8203 53.8661 63.5391 53.5982C63.2578 53.3304 63.0859 52.9911 63.0234 52.5804L61.6758 43.7143H61.5C61.0859 43.7143 60.7324 43.5469 60.4395 43.2121C60.1465 42.8772 60 42.4732 60 42C60 41.5268 60.1465 41.1228 60.4395 40.7879C60.7324 40.4531 61.0859 40.2857 61.5 40.2857H82.5ZM65.6836 51C65.8867 50.9821 66.0566 50.8817 66.1934 50.6987C66.3301 50.5156 66.3906 50.308 66.375 50.0759L66 44.5045C65.9844 44.2723 65.8965 44.0781 65.7363 43.9219C65.5762 43.7656 65.3945 43.6964 65.1914 43.7143C64.9883 43.7321 64.8184 43.8326 64.6816 44.0156C64.5449 44.1987 64.4844 44.4062 64.5 44.6384L64.875 50.2098C64.8906 50.433 64.9707 50.6205 65.1152 50.7723C65.2598 50.9241 65.4297 51 65.625 51H65.6836ZM70.5 50.1429V44.5714C70.5 44.3393 70.4258 44.1384 70.2773 43.9688C70.1289 43.7991 69.9531 43.7143 69.75 43.7143C69.5469 43.7143 69.3711 43.7991 69.2227 43.9688C69.0742 44.1384 69 44.3393 69 44.5714V50.1429C69 50.375 69.0742 50.5759 69.2227 50.7455C69.3711 50.9152 69.5469 51 69.75 51C69.9531 51 70.1289 50.9152 70.2773 50.7455C70.4258 50.5759 70.5 50.375 70.5 50.1429ZM75 50.1429V44.5714C75 44.3393 74.9258 44.1384 74.7773 43.9688C74.6289 43.7991 74.4531 43.7143 74.25 43.7143C74.0469 43.7143 73.8711 43.7991 73.7227 43.9688C73.5742 44.1384 73.5 44.3393 73.5 44.5714V50.1429C73.5 50.375 73.5742 50.5759 73.7227 50.7455C73.8711 50.9152 74.0469 51 74.25 51C74.4531 51 74.6289 50.9152 74.7773 50.7455C74.9258 50.5759 75 50.375 75 50.1429ZM79.125 50.2098L79.5 44.6384C79.5156 44.4062 79.4551 44.1987 79.3184 44.0156C79.1816 43.8326 79.0117 43.7321 78.8086 43.7143C78.6055 43.6964 78.4238 43.7656 78.2637 43.9219C78.1035 44.0781 78.0156 44.2723 78 44.5045L77.625 50.0759C77.6094 50.308 77.6699 50.5156 77.8066 50.6987C77.9434 50.8817 78.1133 50.9821 78.3164 51H78.375C78.5703 51 78.7402 50.9241 78.8848 50.7723C79.0293 50.6205 79.1094 50.433 79.125 50.2098ZM65.5781 33.9107L64.4883 39.4286H62.9414L64.125 33.5223C64.2734 32.7366 64.6211 32.096 65.168 31.6004C65.7148 31.1049 66.3398 30.8571 67.043 30.8571H69C69 30.625 69.0742 30.4241 69.2227 30.2545C69.3711 30.0848 69.5469 30 69.75 30H74.25C74.4531 30 74.6289 30.0848 74.7773 30.2545C74.9258 30.4241 75 30.625 75 30.8571H76.957C77.6602 30.8571 78.2852 31.1049 78.832 31.6004C79.3789 32.096 79.7266 32.7366 79.875 33.5223L81.0586 39.4286H79.5117L78.4219 33.9107C78.3359 33.5179 78.1582 33.1964 77.8887 32.9464C77.6191 32.6964 77.3086 32.5714 76.957 32.5714H75C75 32.8036 74.9258 33.0045 74.7773 33.1741C74.6289 33.3438 74.4531 33.4286 74.25 33.4286H69.75C69.5469 33.4286 69.3711 33.3438 69.2227 33.1741C69.0742 33.0045 69 32.8036 69 32.5714H67.043C66.6914 32.5714 66.3809 32.6964 66.1113 32.9464C65.8418 33.1964 65.6641 33.5179 65.5781 33.9107Z" fill="#FFA451"/>
</g>
<defs>
<filter id="filter0_d" x="0" y="0" width="144" height="144" filterUnits="userSpaceOnUse" color-interpolation-filters="sRGB">
<feFlood flood-opacity="0" result="BackgroundImageFix"/>
<feColorMatrix in="SourceAlpha" type="matrix" values="0 0 0 0 0 0 0 0 0 0 0 0 0 0 0 0 0 0 127 0"/>
<feOffset dy="30"/>
<feGaussianBlur stdDeviation="30"/>
<feColorMatrix type="matrix" values="0 0 0 0 0 0 0 0 0 0 0 0 0 0 0 0 0 0 0.2 0"/>
<feBlend mode="normal" in2="BackgroundImageFix" result="effect1_dropShadow"/>
<feBlend mode="normal" in="SourceGraphic" in2="effect1_dropShadow" result="shape"/>
</filter>
</defs>
</svg>
