<svg width="18" height="12" viewBox="0 0 18 12" fill="none" xmlns="http://www.w3.org/2000/svg">
<path fill-rule="evenodd" clip-rule="evenodd" d="M16.6666 0.666687H15.6666C15.1143 0.666687 14.6666 1.1144 14.6666 1.66669V10.3334C14.6666 10.8856 15.1143 11.3334 15.6666 11.3334H16.6666C17.2189 11.3334 17.6666 10.8856 17.6666 10.3334V1.66669C17.6666 1.1144 17.2189 0.666687 16.6666 0.666687ZM11 3.00002H12C12.5522 3.00002 13 3.44774 13 4.00002V10.3334C13 10.8856 12.5522 11.3334 12 11.3334H11C10.4477 11.3334 9.99996 10.8856 9.99996 10.3334V4.00002C9.99996 3.44774 10.4477 3.00002 11 3.00002ZM7.33329 5.33335H6.33329C5.78101 5.33335 5.33329 5.78107 5.33329 6.33335V10.3334C5.33329 10.8856 5.78101 11.3334 6.33329 11.3334H7.33329C7.88558 11.3334 8.33329 10.8856 8.33329 10.3334V6.33335C8.33329 5.78107 7.88558 5.33335 7.33329 5.33335ZM2.66663 7.33335H1.66663C1.11434 7.33335 0.666626 7.78107 0.666626 8.33335V10.3334C0.666626 10.8856 1.11434 11.3334 1.66663 11.3334H2.66663C3.21891 11.3334 3.66663 10.8856 3.66663 10.3334V8.33335C3.66663 7.78107 3.21891 7.33335 2.66663 7.33335Z" fill="#333333"/>
</svg>
