<?xml version="1.0" encoding="iso-8859-1"?>
<!-- Generator: Adobe Illustrator 19.0.0, SVG Export Plug-In . SVG Version: 6.00 Build 0)  -->
<svg version="1.1" id="Capa_1" xmlns="http://www.w3.org/2000/svg" xmlns:xlink="http://www.w3.org/1999/xlink" x="0px" y="0px"
	 viewBox="0 0 512.012 512.012" style="enable-background:new 0 0 512.012 512.012;" xml:space="preserve">
<g>
	<g>
		<path d="M102.694,330.764c-5.664-2.624-12.32-1.696-17.088,2.368l-64,54.72c-3.552,3.04-5.6,7.488-5.6,12.16v96
			c0,8.832,7.168,16,16,16h64c8.832,0,16-7.168,16-16v-150.72C112.006,339.052,108.358,333.388,102.694,330.764z"/>
	</g>
</g>
<g>
	<g>
		<path d="M230.694,221.004c-5.632-2.624-12.32-1.696-17.088,2.368l-64,54.72c-3.552,3.04-5.6,7.488-5.6,12.16v205.76
			c0,8.832,7.168,16,16,16h64c8.832,0,16-7.168,16-16v-260.48C240.006,229.292,236.358,223.596,230.694,221.004z"/>
	</g>
</g>
<g>
	<g>
		<path d="M358.694,111.244c-5.664-2.624-12.32-1.696-17.088,2.368l-64,54.72c-3.552,3.04-5.6,7.488-5.6,12.16v315.52
			c0,8.832,7.168,16,16,16h64c8.832,0,16-7.168,16-16v-370.24C368.006,119.532,364.39,113.868,358.694,111.244z"/>
	</g>
</g>
<g>
	<g>
		<path d="M486.694,1.484c-5.632-2.624-12.352-1.728-17.088,2.368l-64,54.72c-3.552,3.04-5.6,7.488-5.6,12.16v425.28
			c0,8.832,7.168,16,16,16h64c8.832,0,16-7.168,16-16v-480C496.006,9.772,492.39,4.076,486.694,1.484z"/>
	</g>
</g>
<g>
</g>
<g>
</g>
<g>
</g>
<g>
</g>
<g>
</g>
<g>
</g>
<g>
</g>
<g>
</g>
<g>
</g>
<g>
</g>
<g>
</g>
<g>
</g>
<g>
</g>
<g>
</g>
<g>
</g>
</svg>
